# xmcd
#
# Track frame offsets:
#	150
#	13619
#	26729
#	37622
#	51672
#	71323
#	81243
#	93844
#	107510
#	119190
#	137907
#	154665
#	168211
#	180525
#	191746
#	205493
#	216886
#	230080
#	250824
#
# Disc length: 3648 seconds
#
# Revision: 1
# Processed by: cddbd v1.5.2PL0 Copyright (c) Steve Scherf et al.
# Submitted via: EZCDAudioConverter 2.1.7.1
#
DISCID=0a0e3e13
DTITLE=V/A - Eccentric Soul: Smart's Palace
DYEAR=1900
DGENRE=
TTITLE0=Baby Neal and The Smart Brothers - I'm Not Ashamed
TTITLE1=Theron and Darrell - I Was Made To Love Her
TTITLE2=Fred Williams and The Jewels Band - Tell Her
TTITLE3=Smart Brothers - Barefoot Philly
TTITLE4=Chocolate Snow - A Day In The Life
TTITLE5=Baby Neal and The Smart Brothers - Lorraine
TTITLE6=L.T. and The Soulful Dynamics - Everybody Needs Somebody
TTITLE7=Theron and Darrell - It's Your Love
TTITLE8=Hard Road featuring C.C. Neal - If You Really Love Me
TTITLE9=Chocolate Snow - Inflation
TTITLE10=Kenneth Carr with John Smart's Band - Don't Hate Let's Communicate
TTITLE11=John Smart's Band - Herbie's Bag
TTITLE12=Fred Williams and The Jewels Band - The Dance Got Old
TTITLE13=Smart Brothers with Baby Neal - I've Got A Funny Feeling
TTITLE14=L.T. and The Soulful Dynamics - Crazy About You Baby
TTITLE15=Tim Jacob - Mercy Baby
TTITLE16=Hard Road featuring C.C. Neal - Dedicated To You
TTITLE17=Chocolate Snow - Let Me Be Your Christmas Toy
TTITLE18=Chocolate Snow - It's Like Heaven
EXTD=
EXTT0=
EXTT1=
EXTT2=
EXTT3=
EXTT4=
EXTT5=
EXTT6=
EXTT7=
EXTT8=
EXTT9=
EXTT10=
EXTT11=
EXTT12=
EXTT13=
EXTT14=
EXTT15=
EXTT16=
EXTT17=
EXTT18=
PLAYORDER=
